<?xml version="1.0" encoding="utf-8"?>
<!-- Generator: Adobe Illustrator 26.0.1, SVG Export Plug-In . SVG Version: 6.00 Build 0)  -->
<svg version="1.1" id="Layer_1" xmlns="http://www.w3.org/2000/svg" xmlns:xlink="http://www.w3.org/1999/xlink" x="0px" y="0px"
	 viewBox="0 0 220 220" style="enable-background:new 0 0 220 220;" xml:space="preserve">
<style type="text/css">
	.st0{display:none;}
	.st1{display:inline;}
	.st2{fill:#FFFFFF;}
	.st3{fill:#FFFFFF;stroke:#FFFFFF;stroke-width:10;stroke-miterlimit:10;}
	.st4{fill:none;stroke:#FFFFFF;stroke-width:10;stroke-miterlimit:10;}
	.st5{fill:#442203;}
</style>
<g id="steam" class="st0">
	<g class="st1">
		<path class="st2" d="M72.9,25.7c-34.7,25.9,4.2,26.9-6.2,51.7C102.2,46.2,57.3,52.9,72.9,25.7z"/>
		<path class="st2" d="M100,25.7c-34.7,25.9,4.2,26.9-6.2,51.7C129.2,46.2,84.4,52.9,100,25.7z"/>
		<path class="st2" d="M127.1,25.7c-34.7,25.9,4.2,26.9-6.2,51.7C156.3,46.2,111.5,52.9,127.1,25.7z"/>
	</g>
</g>
<g id="cup">
	<g>
		<path class="st3" d="M182.7,56.2c0.4,3.5,0.7,7.2,0.7,10.8c0,47.2-37.6,85.4-84.1,85.4s-84-38.2-84-85.4c0-3.7,0.2-7.3,0.7-10.8"
			/>
		<path class="st4" d="M185.8,79c12,0.6,21.9,8.7,23,19.6c1.1,12.1-9.1,22.9-22.9,24.2c-6.2,0.6-12-0.8-16.7-3.7"/>
		<g>
			<ellipse class="st5" cx="99.4" cy="56.1" rx="84.7" ry="21.1"/>
			<path class="st2" d="M99.4,38.5c22.7,0,44,2.4,60,6.8c19.3,5.3,21.2,10.7,21.2,10.8c0,0.1-1.9,5.5-21.2,10.8
				c-16,4.4-37.3,6.8-60,6.8s-44-2.4-60-6.8C20,61.6,18.2,56.2,18.2,56.1s1.9-5.5,21.2-10.8C55.4,41,76.7,38.5,99.4,38.5 M99.4,31.5
				c-48.7,0-88.2,11-88.2,24.6s39.5,24.6,88.2,24.6s88.2-11,88.2-24.6S148.1,31.5,99.4,31.5L99.4,31.5z"/>
		</g>
	</g>
</g>
<g id="steam_00000181066219237563215280000015958183583365657267_">
	<g>
		<path class="st2" d="M72.9,5.7c-34.7,25.9,4.2,26.9-6.2,51.7C102.2,26.2,57.3,32.9,72.9,5.7z"/>
		<path class="st2" d="M100,5.7c-34.7,25.9,4.2,26.9-6.2,51.7C129.2,26.2,84.4,32.9,100,5.7z"/>
		<path class="st2" d="M127.1,5.7c-34.7,25.9,4.2,26.9-6.2,51.7C156.3,26.2,111.5,32.9,127.1,5.7z"/>
	</g>
</g>
</svg>
