<?xml version="1.0" encoding="utf-8"?>
<!-- Generator: Adobe Illustrator 26.0.1, SVG Export Plug-In . SVG Version: 6.00 Build 0)  -->
<svg version="1.1" xmlns="http://www.w3.org/2000/svg" xmlns:xlink="http://www.w3.org/1999/xlink" x="0px" y="0px"
	 viewBox="0 0 220 220" style="enable-background:new 0 0 220 220;" xml:space="preserve">
<style type="text/css">
	.st0{display:none;}
	.st1{display:inline;}
	.st2{fill:#FFFFFF;stroke:#FFFFFF;stroke-width:10;stroke-miterlimit:10;}
	.st3{fill:#DDDDDD;}
	.st4{fill:none;stroke:#FFFFFF;stroke-width:10;stroke-miterlimit:10;}
	.st5{fill:#442203;}
	.st6{fill:#FFFFFF;}
</style>
<g id="cup" class="st0">
	<g class="st1">
		<g>
			<path class="st2" d="M139.81,161.97c8.52,3.43,13.69,7.96,13.69,12.92c0,10.74-24.26,19.44-54.19,19.44s-54.19-8.7-54.19-19.44
				s24.26-19.44,54.19-19.44C115.42,155.45,129.89,157.97,139.81,161.97"/>
			<path class="st3" d="M127.49,165.88c5.93,2.25,9.53,5.21,9.53,8.46c0,7.03-16.88,12.73-37.7,12.73s-37.7-5.7-37.7-12.73
				s16.88-12.73,37.7-12.73C110.52,161.61,120.58,163.26,127.49,165.88"/>
		</g>
		<path class="st2" d="M182.7,76.18c0.44,3.54,0.67,7.15,0.67,10.82c0,47.16-37.63,85.4-84.05,85.4S15.27,134.16,15.27,87
			c0-3.66,0.23-7.27,0.67-10.82"/>
		<path class="st4" d="M185.77,99.02c12.03,0.56,21.94,8.71,22.96,19.57c1.14,12.05-9.12,22.88-22.9,24.18
			c-6.17,0.58-12.01-0.84-16.67-3.68"/>
		<g>
			<ellipse class="st5" cx="99.36" cy="76.1" rx="84.69" ry="21.06"/>
			<path class="st6" d="M99.36,58.54c22.68,0,43.98,2.42,59.99,6.8c19.32,5.29,21.19,10.71,21.2,10.76c0,0.05-1.87,5.46-21.2,10.76
				c-16.01,4.39-37.32,6.8-59.99,6.8s-43.98-2.42-59.99-6.8c-19.32-5.29-21.19-10.71-21.2-10.76c0-0.05,1.87-5.46,21.2-10.76
				C55.38,60.96,76.69,58.54,99.36,58.54 M99.36,51.54c-48.7,0-88.19,11-88.19,24.56c0,13.56,39.48,24.56,88.19,24.56
				s88.19-11,88.19-24.56C187.55,62.54,148.07,51.54,99.36,51.54L99.36,51.54z"/>
		</g>
	</g>
</g>
<g id="steam">
	<g>
		<path class="st6" d="M72.95,25.67c-34.7,25.87,4.18,26.94-6.23,51.74C102.15,46.24,57.33,52.94,72.95,25.67z"/>
		<path class="st6" d="M100.02,25.67c-34.7,25.87,4.18,26.94-6.23,51.74C129.22,46.24,84.4,52.94,100.02,25.67z"/>
		<path class="st6" d="M127.09,25.67c-34.7,25.87,4.18,26.94-6.23,51.74C156.29,46.24,111.47,52.94,127.09,25.67z"/>
	</g>
</g>
</svg>
